<?xml version="1.0" encoding="UTF-8"?>
<svg width="46px" height="45px" viewBox="0 0 46 45" version="1.1" xmlns="http://www.w3.org/2000/svg" xmlns:xlink="http://www.w3.org/1999/xlink">
    <title>icon已成交</title>
    <defs>
        <filter id="filter-1">
            <feColorMatrix in="SourceGraphic" type="matrix" values="0 0 0 0 0.274510 0 0 0 0 0.858824 0 0 0 0 0.478431 0 0 0 1.000000 0"></feColorMatrix>
        </filter>
    </defs>
    <g id="页面-4" stroke="none" stroke-width="1" fill="none" fill-rule="evenodd">
        <g filter="url(#filter-1)" id="icon已成交">
            <g transform="translate(0.828018, 0.500000)">
                <path d="M22.5,44 C13.5567044,44 5.85979144,38.6636012 2.41974906,31.0012913 L4.63511159,31.0010475 C7.92893681,37.5256356 14.6919465,42 22.5,42 C30.3080535,42 37.0710632,37.5256356 40.3648884,31.0010475 L42.5802509,31.0012913 C39.1402086,38.6636012 31.4432956,44 22.5,44 Z M22.5,0 C31.4436851,0 39.1408789,5.33686358 42.5807003,12.9997096 L40.365394,12.999954 C37.0717553,6.47482228 30.308453,2 22.5,2 C14.691547,2 7.92824473,6.47482228 4.63460602,12.999954 L2.4192997,12.9997096 C5.85912112,5.33686358 13.5563149,0 22.5,0 Z" id="形状结合" fill="#8C8C8C" fill-rule="nonzero"></path>
                <path d="M22.5,35 C18.8136153,35 15.485605,33.4656171 13.1197851,31.0006676 L16.1757831,31.0013668 C17.9647673,32.2605937 20.1460349,33 22.5,33 C24.8542233,33 27.0357112,32.2604315 28.8248055,31.0009525 L31.8802149,31.0006676 C29.514395,33.4656171 26.1863847,35 22.5,35 Z M22.5,9 C26.1868875,9 29.5153028,10.5348014 31.8811829,13.000341 L28.8258048,12.9997511 C27.0365235,11.7398439 24.8546616,11 22.5,11 C20.1451542,11 17.9631353,11.7399597 16.1737755,13.0000467 L13.1188171,13.000341 C15.4846972,10.5348014 18.8131125,9 22.5,9 Z" id="形状结合" fill="#8C8C8C" fill-rule="nonzero"></path>
                <path d="M13.4054834,10.6619531 C13.3706603,10.6620932 13.3363114,10.6538793 13.3053188,10.6380007 L12.1947982,10.0566105 L11.0842776,10.6380007 C11.0107075,10.6766866 10.9215309,10.6701137 10.8544279,10.621059 C10.7873249,10.5720044 10.7540028,10.4890267 10.7685414,10.4071866 L10.9862905,9.18125895 L10.0891641,8.31026241 C10.032126,8.25334302 10.0111847,8.16957769 10.0347268,8.09251327 C10.0604744,8.0135622 10.1288865,7.95612977 10.2111036,7.94444386 L11.4522737,7.76371208 L11.998824,6.64665902 C12.0352069,6.57153767 12.1113301,6.52382453 12.1947982,6.52382453 C12.2782664,6.52382453 12.3543895,6.57153767 12.3907724,6.64665902 L12.9438552,7.76153459 L14.1850253,7.94226637 C14.2672424,7.95395228 14.3356545,8.01138471 14.3614021,8.09033578 C14.3849442,8.1674002 14.3640029,8.25116553 14.3069648,8.30808492 L13.4098384,9.17908146 L13.6275875,10.4050091 C13.6434599,10.4883628 13.609467,10.5733451 13.5404879,10.6227582 C13.5010574,10.6503899 13.4535806,10.6641734 13.4054834,10.6619531 L13.4054834,10.6619531 Z" id="路径" fill="#8C8C8C" fill-rule="nonzero" transform="translate(12.198064, 8.593424) rotate(-30.000000) translate(-12.198064, -8.593424) "></path>
                <path d="M13.6239562,37.0685295 C13.5891331,37.0686696 13.5547842,37.0604558 13.5237916,37.0445771 L12.413271,36.4631869 L11.3027504,37.0445771 C11.2291803,37.0832631 11.1400037,37.0766901 11.0729007,37.0276355 C11.0057977,36.9785809 10.9724756,36.8956031 10.9870142,36.813763 L11.2047633,35.5878354 L10.3076369,34.7168389 C10.2505989,34.6599195 10.2296575,34.5761542 10.2531996,34.4990897 C10.2789472,34.4201387 10.3473593,34.3627062 10.4295764,34.3510203 L11.6707465,34.1702885 L12.2172968,33.0532355 C12.2536797,32.9781141 12.3298029,32.930401 12.413271,32.930401 C12.4967392,32.930401 12.5728623,32.9781141 12.6092452,33.0532355 L13.1623281,34.168111 L14.4034981,34.3488428 C14.4857152,34.3605287 14.5541274,34.4179612 14.5798749,34.4969122 C14.603417,34.5739767 14.5824757,34.657742 14.5254376,34.7146614 L13.6283112,35.5856579 L13.8460603,36.8115855 C13.8619327,36.8949393 13.8279398,36.9799215 13.7589607,37.0293347 C13.7195302,37.0569663 13.6720534,37.0707499 13.6239562,37.0685295 L13.6239562,37.0685295 Z" id="路径备份-3" fill="#8C8C8C" fill-rule="nonzero" transform="translate(12.416537, 35.000000) rotate(-30.000000) translate(-12.416537, -35.000000) "></path>
                <path d="M23.707419,7.35621848 C23.6725958,7.3563586 23.6382469,7.34814474 23.6072544,7.33226608 L22.4967338,6.75087589 L21.3862132,7.33226608 C21.312643,7.37095205 21.2234665,7.36437908 21.1563634,7.31532445 C21.0892604,7.26626982 21.0559384,7.1832921 21.0704769,7.10145199 L21.2882261,5.87552436 L20.3910996,5.00452782 C20.3340616,4.94760843 20.3131203,4.8638431 20.3366623,4.78677869 C20.3624099,4.70782761 20.4308221,4.65039518 20.5130391,4.63870928 L21.7542092,4.45797749 L22.3007595,3.34092443 C22.3371425,3.26580309 22.4132656,3.21808994 22.4967338,3.21808994 C22.5802019,3.21808994 22.6563251,3.26580309 22.692708,3.34092443 L23.2457908,4.4558 L24.4869609,4.63653178 C24.5691779,4.64821769 24.6375901,4.70565012 24.6633377,4.7846012 C24.6868797,4.86166561 24.6659384,4.94543094 24.6089004,5.00235033 L23.7117739,5.87334687 L23.9295231,7.0992745 C23.9453955,7.18262824 23.9114025,7.2676105 23.8424234,7.31702364 C23.8029929,7.34465527 23.7555161,7.35843886 23.707419,7.35621848 L23.707419,7.35621848 Z" id="路径备份" fill="#8C8C8C" fill-rule="nonzero"></path>
                <path d="M23.707419,40.7808406 C23.6725958,40.7809807 23.6382469,40.7727668 23.6072544,40.7568882 L22.4967338,40.175498 L21.3862132,40.7568882 C21.312643,40.7955741 21.2234665,40.7890012 21.1563634,40.7399465 C21.0892604,40.6908919 21.0559384,40.6079142 21.0704769,40.5260741 L21.2882261,39.3001465 L20.3910996,38.4291499 C20.3340616,38.3722305 20.3131203,38.2884652 20.3366623,38.2114008 C20.3624099,38.1324497 20.4308221,38.0750173 20.5130391,38.0633314 L21.7542092,37.8825996 L22.3007595,36.7655465 C22.3371425,36.6904252 22.4132656,36.642712 22.4967338,36.642712 C22.5802019,36.642712 22.6563251,36.6904252 22.692708,36.7655465 L23.2457908,37.8804221 L24.4869609,38.0611539 C24.5691779,38.0728398 24.6375901,38.1302722 24.6633377,38.2092233 C24.6868797,38.2862877 24.6659384,38.370053 24.6089004,38.4269724 L23.7117739,39.297969 L23.9295231,40.5238966 C23.9453955,40.6072503 23.9114025,40.6922326 23.8424234,40.7416457 C23.8029929,40.7692774 23.7555161,40.783061 23.707419,40.7808406 L23.707419,40.7808406 Z" id="路径备份-4" fill="#8C8C8C" fill-rule="nonzero"></path>
                <path d="M34.0093545,10.6619531 C33.9745314,10.6620932 33.9401825,10.6538793 33.9091899,10.6380007 L32.7986693,10.0566105 L31.6881487,10.6380007 C31.6145786,10.6766866 31.525402,10.6701137 31.458299,10.621059 C31.391196,10.5720044 31.3578739,10.4890267 31.3724125,10.4071866 L31.5901616,9.18125895 L30.6930352,8.31026241 C30.6359971,8.25334302 30.6150558,8.16957769 30.6385979,8.09251327 C30.6643455,8.0135622 30.7327576,7.95612977 30.8149747,7.94444386 L32.0561448,7.76371208 L32.6026951,6.64665902 C32.639078,6.57153767 32.7152012,6.52382453 32.7986693,6.52382453 C32.8821375,6.52382453 32.9582606,6.57153767 32.9946435,6.64665902 L33.5477263,7.76153459 L34.7888964,7.94226637 C34.8711135,7.95395228 34.9395256,8.01138471 34.9652732,8.09033578 C34.9888153,8.1674002 34.967874,8.25116553 34.9108359,8.30808492 L34.0137095,9.17908146 L34.2314586,10.4050091 C34.247331,10.4883628 34.2133381,10.5733451 34.144359,10.6227582 C34.1049285,10.6503899 34.0574517,10.6641734 34.0093545,10.6619531 L34.0093545,10.6619531 Z" id="路径备份-2" fill="#8C8C8C" fill-rule="nonzero" transform="translate(32.801936, 8.593424) rotate(-330.000000) translate(-32.801936, -8.593424) "></path>
                <path d="M34.2278273,37.0685295 C34.1930042,37.0686696 34.1586553,37.0604558 34.1276627,37.0445771 L33.0171421,36.4631869 L31.9066215,37.0445771 C31.8330514,37.0832631 31.7438748,37.0766901 31.6767718,37.0276355 C31.6096688,36.9785809 31.5763467,36.8956031 31.5908853,36.813763 L31.8086344,35.5878354 L30.911508,34.7168389 C30.85447,34.6599195 30.8335286,34.5761542 30.8570707,34.4990897 C30.8828183,34.4201387 30.9512304,34.3627062 31.0334475,34.3510203 L32.2746176,34.1702885 L32.8211679,33.0532355 C32.8575508,32.9781141 32.933674,32.930401 33.0171421,32.930401 C33.1006103,32.930401 33.1767334,32.9781141 33.2131164,33.0532355 L33.7661992,34.168111 L35.0073692,34.3488428 C35.0895863,34.3605287 35.1579985,34.4179612 35.183746,34.4969122 C35.2072881,34.5739767 35.1863468,34.657742 35.1293087,34.7146614 L34.2321823,35.5856579 L34.4499314,36.8115855 C34.4658038,36.8949393 34.4318109,36.9799215 34.3628318,37.0293347 C34.3234013,37.0569663 34.2759245,37.0707499 34.2278273,37.0685295 L34.2278273,37.0685295 Z" id="路径备份-5" fill="#8C8C8C" fill-rule="nonzero" transform="translate(33.020408, 35.000000) rotate(-330.000000) translate(-33.020408, -35.000000) "></path>
                <path d="M3,15 L42,15 C43.6568542,15 45,16.3431458 45,18 L45,26 C45,27.6568542 43.6568542,29 42,29 L3,29 C1.34314575,29 -1.40079486e-14,27.6568542 -1.42108547e-14,26 L-1.42108547e-14,18 C-1.44137608e-14,16.3431458 1.34314575,15 3,15 Z M14.66,26.59 C16.48,26.59 16.92,26.04 17.15,24.16 C16.8,24.09 16.26,23.89 15.95,23.7 C15.8,25.15 15.64,25.41 14.61,25.41 L11.34,25.41 C10.24,25.41 10.06,25.32 10.06,24.7 L10.06,22.57 L14.6,22.57 L14.6,23.04 L15.84,23.04 L15.84,18.09 L8.43,18.09 L8.43,19.27 L14.6,19.27 L14.6,21.4 L10.06,21.4 L10.06,20.04 L8.83,20.04 L8.83,24.7 C8.83,26.21 9.42,26.59 11.35,26.59 L14.66,26.59 Z M18.79,26.99 C19.61,25.77 19.82,23.82 19.86,22.36 L21.16,22.36 C21.13,23.62 21.09,24.1 20.99,24.24 C20.91,24.34 20.83,24.36 20.69,24.36 C20.53,24.36 20.19,24.35 19.83,24.32 C20.01,24.62 20.14,25.08 20.16,25.43 C20.62,25.44 21.05,25.44 21.31,25.4 C21.61,25.35 21.81,25.26 22,25 C22.23,24.71 22.29,23.82 22.32,21.72 C22.32,21.58 22.33,21.27 22.33,21.27 L19.86,21.27 L19.86,20.2 L22.76,20.2 C22.89,21.7 23.11,23.1 23.45,24.23 C22.87,24.88 22.18,25.43 21.41,25.85 C21.66,26.08 22.09,26.57 22.27,26.83 C22.89,26.45 23.45,26 23.96,25.47 C24.4,26.29 24.95,26.79 25.65,26.79 C26.58,26.79 26.98,26.35 27.17,24.5 C26.85,24.37 26.43,24.11 26.16,23.83 C26.11,25.08 25.99,25.58 25.75,25.58 C25.43,25.58 25.11,25.16 24.82,24.44 C25.54,23.47 26.13,22.31 26.54,21.01 L25.35,20.72 C25.11,21.53 24.78,22.27 24.39,22.94 C24.22,22.14 24.08,21.2 23.99,20.2 L27.08,20.2 L27.08,19.02 L26.04,19.02 L26.52,18.51 C26.17,18.18 25.44,17.72 24.89,17.44 L24.17,18.15 C24.58,18.4 25.08,18.72 25.45,19.02 L23.92,19.02 C23.9,18.53 23.89,18.04 23.9,17.54 L22.65,17.54 C22.65,18.04 22.67,18.53 22.69,19.02 L18.61,19.02 L18.61,21.94 C18.61,23.24 18.54,24.98 17.78,26.18 C18.05,26.32 18.58,26.76 18.79,26.99 Z M36.88,19.95 L36.88,18.79 L33.34,18.79 L33.37,18.78 C33.24,18.4 32.91,17.83 32.64,17.4 L31.5,17.8 C31.68,18.1 31.87,18.46 32.01,18.79 L28.11,18.79 L28.11,19.95 L36.88,19.95 Z M35.94,22.86 L36.96,22.09 C36.41,21.45 35.25,20.57 34.39,19.98 L33.45,20.65 C34.34,21.3 35.45,22.24 35.94,22.86 Z M28.98,22.81 C29.87,22.27 30.95,21.36 31.63,20.48 L30.48,20.04 C29.9,20.76 28.93,21.49 28.04,21.94 C28.31,22.14 28.76,22.57 28.98,22.81 Z M28.68,26.86 C30.15,26.5 31.44,25.99 32.5,25.24 C33.51,26 34.76,26.51 36.34,26.81 C36.49,26.49 36.8,26 37.06,25.74 C35.59,25.52 34.39,25.09 33.43,24.46 C34.08,23.82 34.61,23.04 35.01,22.11 L33.81,21.76 C33.52,22.54 33.08,23.19 32.51,23.73 C31.96,23.19 31.53,22.54 31.23,21.81 L30.16,22.14 C30.54,23.03 31.03,23.8 31.62,24.44 C30.64,25.09 29.41,25.52 27.96,25.8 C28.19,26.06 28.54,26.59 28.68,26.86 Z" id="形状结合" fill="#8C8C8C"></path>
            </g>
        </g>
    </g>
</svg>